<?xml version="1.0" standalone="yes"?>
<svg width="500" height="500">
<path style="fill:#000000; stroke:none;" d="M0 0L0 500L221 500L221 499C204.615 498.864 186.183 493.756 171 487.797C162.429 484.433 152.135 478.002 143 477.105C130.243 475.852 116.82 477 104 477C99.3563 477 92.0933 478.346 88.1481 475.397C81.9111 470.734 85 454.003 85 447C81.7546 447 78.1948 447.39 75.0039 446.721C60.5848 443.7 70.7903 423.101 65.0069 414.17C58.9538 404.822 51.1655 396.653 45.4537 387C28.571 358.467 16.5211 326.918 12 294C2.02192 221.351 26.2981 147.062 77.0394 94C96.1077 74.0597 119.173 62.2533 140.815 46.0347C147.857 40.7577 152.048 31.2507 159 25.3001C175.452 11.2192 201.267 1.44867 223 1L202 0L157 0L0 0z"/>
<path style="fill:#0182fc; stroke:none;" d="M142 45L142 46C146.395 56.147 138.543 73.0778 151.465 80.9722C154.775 82.9948 160.283 82 164 82L194 82L304 82L335 82C339.333 82 345.145 82.9965 348.906 80.3966C361.753 71.515 359.786 45.7474 351.471 35C332.461 10.4276 302.903 6.66171 275 0L271 0C258.902 2.63058 244.513 -0.712616 232 0.0887451C195.931 2.39874 162.61 13.8535 142 45z"/>
<path style="fill:#000000; stroke:none;" d="M224 0L225 1L224 0z"/>
<path style="fill:#0000ff; stroke:none;" d="M225 0L225 1L229 1L225 0z"/>
<path style="fill:#4fa2fa; stroke:none;" d="M264 0L264 1L270 1L264 0z"/>
<path style="fill:#0000ff; stroke:none;" d="M271 0L271 1L274 1L271 0z"/>
<path style="fill:#3c9dfc; stroke:none;" d="M274 0L271 1L271 2L274 0z"/>
<path style="fill:#000000; stroke:none;" d="M276 0L276 1C298.049 1.1825 324.31 11.0152 341 25.3001C348.093 31.3708 352.575 41.6838 360.093 46.6512C379.568 59.5184 398.766 71.036 416 87.0895C448.402 117.273 472.373 159.071 483.105 202C508.633 304.113 463.453 408.367 376 464.858C348.725 482.477 312.101 498.726 279 499L279 500L500 500L500 0L276 0z"/>
<path style="fill:#fed402; stroke:none;" d="M244 28.6381C219.334 35.7673 229.812 74.0585 255 67.3873C281.081 60.4796 269.305 21.3243 244 28.6381z"/>
<path style="fill:#90b16e; stroke:none;" d="M257 29L258 30L257 29z"/>
<path style="fill:#76a789; stroke:none;" d="M261 31L262 32L261 31z"/>
<path style="fill:#96b368; stroke:none;" d="M266 36L267 37L266 36z"/>
<path style="fill:#7da781; stroke:none;" d="M232 37L233 38L232 37z"/>
<path style="fill:#5e9da0; stroke:none;" d="M229 45L229 51L230 51L229 45z"/>
<path style="fill:#3f96bf; stroke:none;" d="M270 45L270 51L271 51L270 45z"/>
<path style="fill:#d8ecfe; stroke:none;" d="M357 45C357.31 60.0301 356.522 69.0608 348 82C360.507 86.4979 353.349 101.96 342 102C342 106.911 340.384 115.32 343.028 119.625C345.707 123.987 350.672 125.658 352.347 131C355.434 140.843 355.707 166.375 347.891 173.786C342.022 179.352 334.504 179 327 179C325.712 185.641 324.286 191.91 321.241 198C319.477 201.528 315.225 206.025 314.993 210C314.642 216.013 326.62 230.387 332.004 232.397C339.299 235.119 349.306 232.391 357 233.059C364.176 233.681 379.601 242.054 384.826 247.185C401.384 263.443 386.819 282.961 394.603 300.786C397.024 306.329 409.255 310.267 413.985 314.325C423.571 322.548 429.339 335.664 431 348C447.201 346.677 456.408 348.543 472 353C523.486 237.396 465.665 101.947 357 45z"/>
<path style="fill:#00ffff; stroke:none;" d="M140 46L141 47L140 46z"/>
<path style="fill:#d8ecfe; stroke:none;" d="M141 46C53.7199 87.5501 3.61528 185.458 10.0895 280C12.1196 309.645 22.5849 335.341 32 363L58 349C58.0028 323.421 78.4049 294.588 106 294C106 272.189 103.272 244.434 131 238.518C140.934 236.398 156.918 242.102 165.7 236.972C173.986 232.132 180.152 217.588 186 210L186 209C178.451 200.143 173.927 189.646 173 178C166.803 178 159.36 179.194 154.04 175.347C144.201 168.233 144.272 141.779 147.653 131C149.392 125.455 155.249 123.558 157.397 118.675C159.376 114.175 158 106.858 158 102C146.844 101.968 139.633 88.6357 151 82L142.019 64L141 46z"/>
<path style="fill:#94c6fd; stroke:none;" d="M142 46L141 62L142 62L144 46L142 46z"/>
<path style="fill:#00ffff; stroke:none;" d="M359 46L360 47L359 46M361 47L362 48L361 47z"/>
<path style="fill:#0000ff; stroke:none;" d="M363 48L364 49L363 48z"/>
<path style="fill:#70a38e; stroke:none;" d="M230 55L231 56L230 55z"/>
<path style="fill:#7ba683; stroke:none;" d="M232 59L233 60L232 59z"/>
<path style="fill:#93b26b; stroke:none;" d="M266 60L267 61L266 60z"/>
<path style="fill:#82bdfd; stroke:none;" d="M142 62L144 71L145 71L142 62z"/>
<path style="fill:#7daa82; stroke:none;" d="M264 62L265 63L264 62z"/>
<path style="fill:#72a68d; stroke:none;" d="M261 64L262 65L261 64z"/>
<path style="fill:#8eb070; stroke:none;" d="M257 66L258 67L257 66z"/>
<path style="fill:#87c4fe; stroke:none;" d="M354.333 71.6667L354.667 72.3333L354.333 71.6667z"/>
<path style="fill:#fed402; stroke:none;" d="M149.228 82.7423C143.898 85.2322 144.34 99.79 150.109 101.566C163.631 105.731 183.83 102 198 102L303 102L338 102C341.993 102 348.39 103.171 351.682 100.397C355.395 97.2682 355.583 84.9901 350.772 82.7423C343.323 79.2626 329.166 82 321 82L199 82L165 82C160.385 82 153.5 80.7469 149.228 82.7423z"/>
<path style="fill:#0000ff; stroke:none;" d="M83 87L84 88L83 87M416 87L417 88L416 87z"/>
<path style="fill:#d88a55; stroke:none;" d="M158 102L158 120L173 119C173 104.792 172.769 102 158 102z"/>
<path style="fill:#444474; stroke:none;" d="M172 102L172 103C202.338 124.793 236.675 133.954 274 127L243 116.11L222 102.303L172 102z"/>
<path style="fill:#5a5a8a; stroke:none;" d="M224 102C248.67 132.863 302.201 132.658 327 102L224 102z"/>
<path style="fill:#d88a55; stroke:none;" d="M326 103L327 119L342 120L342 102L326 103z"/>
<path style="fill:#ffbd86; stroke:none;" d="M173 104L173 119L159 119L159 120L173 120C173 155.107 163.181 210.586 207 223.961C218.427 227.449 231.19 226 243 226L245.14 248L263 266C279.032 254.707 283 244.563 283 226C267.904 226 250.363 228.528 236 223.12C207.337 212.328 197.405 177.7 204 150C194.45 144.214 194.45 134.786 204 129L204 121L173 104z"/>
<path style="fill:#fed2a4; stroke:none;" d="M203 122L203 128C224.987 125.418 224.83 153.564 203 151C203 174.181 201.005 198.198 221.001 214.532C233.996 225.148 246.951 226 263 226C295.74 226 322.312 215.301 327 179L340 179L340 178L327 178L327 104C320.15 106.31 315.268 112.159 309 115.651C300.788 120.226 291.006 122.897 282 125.441C254.455 133.224 230.033 125.643 203 122z"/>
<path style="fill:#00ffff; stroke:none;" d="M66 105L67 106L66 105z"/>
<path style="fill:#ffbd86; stroke:none;" d="M327 119L327 178C334.284 178 343.168 179.525 348.772 173.786C356.368 166.009 356.396 131.838 348.786 124.214C342.892 118.309 334.648 119 327 119z"/>
<path style="fill:#00ffff; stroke:none;" d="M444 119L445 120L444 119z"/>
<path style="fill:#fed2a4; stroke:none;" d="M173 178L173 120C166.14 120 157.648 118.449 152.105 123.344C143.281 131.137 143.311 166.683 152.189 174.606C157.663 179.491 166.226 178 173 178z"/>
<path style="fill:#a79297; stroke:none;" d="M280 125L280 126L283 126L280 125z"/>
<path style="fill:#00ffff; stroke:none;" d="M50 126L51 127L50 126z"/>
<path style="fill:#a89396; stroke:none;" d="M275 126L275 127L278 127L275 126z"/>
<path style="fill:#d99d7a; stroke:none;" d="M206 127L206 128L211 128L206 127z"/>
<path style="fill:#98858d; stroke:none;" d="M227.667 127.333L228.333 127.667L227.667 127.333z"/>
<path style="fill:#d99d7a; stroke:none;" d="M289 127L289 128L294 128L289 127z"/>
<path style="fill:#a44f3e; stroke:none;" d="M204.015 128.703C188.783 133.987 198.461 155.018 212.985 150.347C228.225 145.447 218.774 123.583 204.015 128.703M286.015 128.858C271.26 135.014 282.658 156.401 296.96 149.91C311.662 143.239 299.902 123.064 286.015 128.858z"/>
<path style="fill:#00ffff; stroke:none;" d="M46 132L47 133L46 132M453 132L454 133L453 132z"/>
<path style="fill:#0000ff; stroke:none;" d="M43 137L44 138L43 137z"/>
<path style="fill:#a44f3e; stroke:none;" d="M251 159L250.999 149C250.964 142.226 242.329 131.844 237.742 142.189C235.44 147.381 235.134 165.814 238.179 170.656C241.4 175.778 256.242 175.534 260.566 171.991C269.355 164.79 257.142 159.055 251 159z"/>
<path style="fill:#d09171; stroke:none;" d="M236 143L236 168L237 168L236 143M251 144L251 159L252 159L251 144z"/>
<path style="fill:#d99c7a; stroke:none;" d="M206 151L206 152L211 152L206 151M289 151L289 152L294 152L289 151z"/>
<path style="fill:#d39373; stroke:none;" d="M263 165L263 168L264 168L263 165z"/>
<path style="fill:#d49574; stroke:none;" d="M225 186L225 187L275 187C262.11 181.591 239.049 186 225 186z"/>
<path style="fill:#a44f3e; stroke:none;" d="M222.318 188.028C217.77 191.063 220.391 198.469 225.019 199.682C236.515 202.694 252.108 200 264 200C267.993 200 274.39 201.171 277.682 198.397C281.249 195.391 280.569 188.82 275.941 187.434C264.502 184.006 247.945 187 236 187C232.157 187 225.668 185.792 222.318 188.028z"/>
<path style="fill:#d59675; stroke:none;" d="M219 191L219 195L220 195L219 191z"/>
<path style="fill:#d59776; stroke:none;" d="M280 191L280 195L281 195L280 191z"/>
<path style="fill:#ce8c6e; stroke:none;" d="M225 200L225 201L275 201C262.11 195.591 239.049 200 225 200z"/>
<path style="fill:#54a2fc; stroke:none;" d="M184 213L187 210L184 213z"/>
<path style="fill:#0182fc; stroke:none;" d="M313 210L295 223L299.891 238L291.742 268L273 330C282.881 333.554 279 352.362 279 361L279 446C279 453.176 282.165 470.426 275.772 475.258C268.748 480.565 249.562 477 241 477L146 477L146 478C191.095 496.501 236.132 504.535 285 498.844C299.734 497.128 313.648 492.32 328 489C328 416.238 324.835 342.687 328.019 270.004C328.43 260.638 343.012 259.705 342.573 250.996C342.356 246.686 337.964 242.337 335.579 239C328.811 229.534 321.683 217.713 313 210M186 211C178.575 217.776 173.394 233.623 163.91 237.397C146.576 244.293 128.35 231.217 113.329 248.09C105.356 257.045 106 267.831 106 279L106 330L227 330L205.859 261L199.765 239L204 223L186 211z"/>
<path style="fill:#4e9efc; stroke:none;" d="M180 217L179 220L180 217z"/>
<path style="fill:#eaf6ff; stroke:none;" d="M204 223C192.587 256.735 220.09 296.612 227 330L239 330C239.01 315.447 238.779 307.38 228 296L228 295L235 290L225.062 256.09L217.533 245L214.972 226.738L204 223z"/>
<path style="fill:#ffffff; stroke:none;" d="M284 225C284 243.63 278.55 251.069 265 263.96C261.554 267.238 254.239 274.969 249 274.044C239.748 272.411 232.297 260.14 225 255L234 289L250 281.671L282 300C289.347 277.022 305.889 246.008 295 223L284 225z"/>
<path style="fill:#4a9bfc; stroke:none;" d="M175 224L174 227L175 224z"/>
<path style="fill:#f5d4b8; stroke:none;" d="M216 226L216 243L217 243L216 226z"/>
<path style="fill:#f6a96c; stroke:none;" d="M217 226C217 232.185 215.695 240.092 217.703 245.999C220.336 253.747 230.944 261.509 237 266.7C243.967 272.671 256.339 279.358 261.824 266.715C263.949 261.817 250.013 253.342 247.228 249.996C241.685 243.338 243 234.083 243 226L217 226z"/>
<path style="fill:#ffebda; stroke:none;" d="M283 226L283 242L284 242L283 226z"/>
<path style="fill:#00ffff; stroke:none;" d="M11 229L12 230L11 229z"/>
<path style="fill:#883f2e; stroke:none;" d="M331 233L342.169 250.996L328.603 265.325L328 300L348 300L348 257C348 248.677 346.882 240.485 351 233L331 233z"/>
<path style="fill:#a44f3e; stroke:none;" d="M348 300L365 300L365 258C365 251.803 366.258 244.031 364.682 238.019C363.333 232.87 356.496 231.812 352.059 233.603C346.223 235.96 348 245.004 348 250L348 300z"/>
<path style="fill:#63a9fd; stroke:none;" d="M199 237L199 240L200 240L199 237z"/>
<path style="fill:#0182fc; stroke:none;" d="M365 238L365 397L365 446L366 471C372.746 468.526 391.701 459.161 393.682 451.907C395.381 445.687 394 437.43 394 431L394 388L394 305C394 291.371 395.691 276.484 393.699 263C391.536 248.357 378.788 239.858 365 238z"/>
<path style="fill:#6aacfd; stroke:none;" d="M299.333 242.667L299.667 243.333L299.333 242.667z"/>
<path style="fill:#66aafd; stroke:none;" d="M296.333 252.667L296.667 253.333L296.333 252.667z"/>
<path style="fill:#62a8fd; stroke:none;" d="M293.333 262.667L293.667 263.333L293.333 262.667z"/>
<path style="fill:#5ea5fc; stroke:none;" d="M290.333 271.667L290.667 272.333L290.333 271.667z"/>
<path style="fill:#5a5a8a; stroke:none;" d="M234 290L249.49 314L249 330L261 330C260.898 325.043 258.17 317.944 260.024 313.285C262.303 307.559 270.686 302.709 270.339 296.015C270.138 292.141 265.829 289.904 263 288.001C250.491 279.587 245.975 281.922 234 290z"/>
<path style="fill:#5aa3fc; stroke:none;" d="M287.333 281.667L287.667 282.333L287.333 281.667z"/>
<path style="fill:#0000ff; stroke:none;" d="M489 282L490 283L489 282z"/>
<path style="fill:#444474; stroke:none;" d="M228 295L228 296C236.695 309.032 239.318 314.614 239 330L249 330C251.299 311.813 243.54 305.989 235 291L228 295z"/>
<path style="fill:#56a1fc; stroke:none;" d="M284.333 291.667L284.667 292.333L284.333 291.667z"/>
<path style="fill:#aed494; stroke:none;" d="M99 294L99 295L102 295L99 294z"/>
<path style="fill:#81b823; stroke:none;" d="M66 416L67 416C67 405.798 62.4233 381.085 72.044 374.742C75.9772 372.149 81.5175 373 86 373L86 343L89.1481 331.603L106 330L106 294C88.7356 295.364 69.426 307.167 63.1289 324C60.4833 331.072 61.8985 342.613 57.9722 348.697C53.7087 355.303 32.7949 352.962 33.5386 364.09C33.8782 369.173 38.6011 374.649 40.9715 379C48.2592 392.377 56.6548 403.982 66 416z"/>
<path style="fill:#9c9cc3; stroke:none;" d="M271.333 294.667L271.667 295.333L271.333 294.667z"/>
<path style="fill:#e2e2ff; stroke:none;" d="M261 330L273 330L282 300C279.368 299.005 275.97 296.186 273.129 296.306C270.087 296.434 268.151 300.871 266.615 303C259.562 312.778 260.509 318.573 261 330z"/>
<path style="fill:#9c9ccc; stroke:none;" d="M328 300L328 352L348 352L348 300L328 300z"/>
<path style="fill:#bfbfef; stroke:none;" d="M348 300L348 352L365 352L365 300L348 300z"/>
<path style="fill:#81b823; stroke:none;" d="M394 302L394 453C406.902 446.413 417.837 433.717 427.285 423C445.946 401.834 461.232 379.246 472 353C457.724 347.144 445.108 345.883 430 349C429.985 326.097 414.158 310.281 394 302z"/>
<path style="fill:#8282ad; stroke:none;" d="M259 312L259 317L260 317L259 312z"/>
<path style="fill:#8282ab; stroke:none;" d="M239 320L239 324L240 324L239 320z"/>
<path style="fill:#5aa8fd; stroke:none;" d="M225.333 323.667L225.667 324.333L225.333 323.667z"/>
<path style="fill:#59a8fd; stroke:none;" d="M274.333 323.667L274.667 324.333L274.333 323.667z"/>
<path style="fill:#b2d59e; stroke:none;" d="M61 328L61 331L62 331L61 328z"/>
<path style="fill:#c57a44; stroke:none;" d="M86 373C93.4339 373 118.699 372.149 109.415 386.955C108.245 388.822 106.475 390.377 105 392C112.104 397.594 112.031 403.333 105 409C110.537 415.091 113.935 422.096 105 427L105 429C119.725 437.081 103.683 445.979 94 446C91.5802 446.005 87.7449 445.435 86.0278 447.603C82.9016 451.55 83.5951 471.992 87.4336 475.258C90.9327 478.234 97.7479 477 102 477L120 477C114.954 465.424 117 451.513 117 439L117 367C117 357.621 113.323 338.126 120 331L108 330L88.3179 331.603L86 343L86 373z"/>
<path style="fill:#d88a55; stroke:none;" d="M120.228 330.742C113.553 333.86 117 356.587 117 363L117 446C117 452.985 113.933 469.81 119.148 475.106C125.472 481.529 147.694 476.001 156 476L241 476C250.417 476 267.181 479.27 275.772 475.397C282.347 472.432 279 450.217 279 444L279 361C279 354.463 282.109 336.594 277.258 331.742C274.807 329.292 270.135 330.001 267 330L241 330L155 330C145.577 330 128.797 326.74 120.228 330.742z"/>
<path style="fill:#b6d8a9; stroke:none;" d="M60 331L55 351C60.1276 349.298 61.8517 335.746 60 331z"/>
<path style="fill:#a3cd79; stroke:none;" d="M428.333 336.667L428.667 337.333L428.333 336.667z"/>
<path style="fill:#e5b18e; stroke:none;" d="M247 339L247 340L267 340L247 339z"/>
<path style="fill:#eaf6ff; stroke:none;" d="M258 366C254.798 358.442 255.112 347.93 257 340C254.073 340 249.051 339.089 246.603 341.028C243.289 343.653 243.711 361.505 246.603 364.397C249.188 366.981 254.677 366 258 366z"/>
<path style="fill:#ffffff; stroke:none;" d="M269 365L269 353C269 348.096 265.246 331.227 257.028 341.603C254.672 344.578 254.538 361.544 257.603 363.972C260.223 366.047 265.855 365 269 365z"/>
<path style="fill:#e5b18d; stroke:none;" d="M269 342L269 363L270 363L269 342z"/>
<path style="fill:#b7d8aa; stroke:none;" d="M430 344L430 347L431 347L430 344z"/>
<path style="fill:#afd497; stroke:none;" d="M439 346L439 347L451 347L439 346z"/>
<path style="fill:#9dc969; stroke:none;" d="M430 347L433 349L433 348L430 347z"/>
<path style="fill:#a6ce81; stroke:none;" d="M435.667 347.333L436.333 347.667L435.667 347.333z"/>
<path style="fill:#a3cd79; stroke:none;" d="M454 347L454 348L457 348L454 347z"/>
<path style="fill:#b3d6a0; stroke:none;" d="M459.667 348.333L460.333 348.667L459.667 348.333z"/>
<path style="fill:#00ffff; stroke:none;" d="M27 351L28 352L27 351z"/>
<path style="fill:#acd290; stroke:none;" d="M45 353L45 354L54 352L45 353z"/>
<path style="fill:#883f2e; stroke:none;" d="M328 352L328 488L348 481L348 352L328 352z"/>
<path style="fill:#a44f3e; stroke:none;" d="M348 352L348 479L364.397 469.61L365 436L365 352L348 352z"/>
<path style="fill:#00ffff; stroke:none;" d="M30 358L31 359L30 358z"/>
<path style="fill:#ffff00; stroke:none;" d="M469 358L470 359L469 358z"/>
<path style="fill:#f2d8c6; stroke:none;" d="M258 365L258 366L268 366L258 365z"/>
<path style="fill:#ffbd86; stroke:none;" d="M105 446L105 445C99.9259 445 93.3092 446.127 89.6528 441.772C85.9111 437.314 87 430.389 87 425C87 411.732 81.4502 382.607 93 374C90.1091 372.787 87.1306 373.001 84 373C79.47 372.999 73.896 372.176 70.2284 375.434C62.4701 382.326 67 408.24 67 418C67 425.098 64.5019 438.119 69.4336 443.852C75.5096 450.915 96.374 446 105 446z"/>
<path style="fill:#fed2a4; stroke:none;" d="M105 429L105 427C114.357 423.635 111.185 413.87 105 409C112.642 404.806 112.689 396.122 105 392C118.56 381.322 103.605 366.048 91.1088 374.742C86.0982 378.228 87 384.669 87 390L87 429C87.0003 434.216 86.2224 441.761 92.1049 444.258C95.9118 445.873 104.465 445.929 107.852 443.397C113.646 439.065 110.852 431.105 105 429z"/>
<path style="fill:#c06f4a; stroke:none;" d="M134 375L134 376L173 376C162.726 371.689 145.172 375 134 375z"/>
<path style="fill:#a44f3e; stroke:none;" d="M132.148 377.028C127.624 379.706 128.222 387.443 133.059 389.397C141.452 392.786 155.972 390.001 165 390C168.333 390 172.927 390.718 175.682 388.397C179.805 384.923 178.049 377.646 172.981 376.318C164.081 373.986 152.196 376 143 376C139.681 376 135.132 375.261 132.148 377.028z"/>
<path style="fill:#00ff00; stroke:none;" d="M42 381L43 382L42 381M455 385L456 386L455 385M45 387L46 388L45 387M454 387L455 388L454 387z"/>
<path style="fill:#bc6a49; stroke:none;" d="M134 390L134 391L173 391C162.726 386.689 145.172 390 134 390z"/>
<path style="fill:#00ff00; stroke:none;" d="M452 390L453 391L452 390z"/>
<path style="fill:#c06f4a; stroke:none;" d="M134 400L134 401L212 401L188 400L134 400z"/>
<path style="fill:#a44f3e; stroke:none;" d="M132.148 402.028C127.115 405.008 128.558 413.251 134.019 414.682C151.567 419.28 175.818 415 194 415C199.377 415 210.329 417.065 214.682 413.397C219.331 409.48 216.541 402.027 210.995 401.148C192.945 398.287 172.293 401 154 401C148.097 401 137.351 398.947 132.148 402.028z"/>
<path style="fill:#00ff00; stroke:none;" d="M444 402L445 403L444 402M59 407L60 408L59 407M437 411L438 412L437 411M436 412L437 413L436 412M64 413L65 414L64 413z"/>
<path style="fill:#bc6a49; stroke:none;" d="M134 415L134 416L212 416L188 415L134 415z"/>
<path style="fill:#c06f4a; stroke:none;" d="M134 422L134 423L212 423L188 422L134 422z"/>
<path style="fill:#a44f3e; stroke:none;" d="M132.148 424.028C127.115 427.008 128.558 435.251 134.019 436.682C151.567 441.28 175.818 437 194 437C199.377 437 210.329 439.065 214.682 435.397C219.331 431.48 216.541 424.027 210.995 423.148C192.945 420.287 172.293 423 154 423C148.097 423 137.351 420.947 132.148 424.028z"/>
<path style="fill:#ffff00; stroke:none;" d="M426 423L427 424L426 423M67 441L68 442L67 441z"/>
<path style="fill:#ff0000; stroke:none;" d="M69 444L70 445L69 444z"/>
<path style="fill:#656280; stroke:none;" d="M365 470L354 476L354 477C357.105 476.166 365.671 473.788 365 470z"/>
<path style="fill:#aa0000; stroke:none;" d="M85 473L86 474L85 473z"/>
<path style="fill:#ffff00; stroke:none;" d="M88 476L89 477L88 476z"/>
<path style="fill:#4985c4; stroke:none;" d="M145 476L145 477L275 477C264.734 472.692 247.158 476 236 476L145 476z"/>
<path style="fill:#556d92; stroke:none;" d="M352.667 477.333L353.333 477.667L352.667 477.333z"/>
<path style="fill:#496d92; stroke:none;" d="M350.667 478.333L351.333 478.667L350.667 478.333z"/>
<path style="fill:#5555aa; stroke:none;" d="M348.667 479.333L349.333 479.667L348.667 479.333z"/>
<path style="fill:#0000ff; stroke:none;" d="M330 487L331 488L330 487z"/>
<path style="fill:#00ffff; stroke:none;" d="M222.667 499.333L223.333 499.667L222.667 499.333z"/>
<path style="fill:#0000ff; stroke:none;" d="M224 499L224 500L228 500L224 499M272 499L272 500L276 500L272 499z"/>
<path style="fill:#00ffff; stroke:none;" d="M276.667 499.333L277.333 499.667L276.667 499.333z"/>
</svg>
